<mxfile host="app.diagrams.net" modified="2024-03-09T06:23:55.013Z" agent="Mozilla/5.0 (Windows NT 10.0; WOW64) AppleWebKit/537.36 (KHTML, like Gecko) Chrome/86.0.4240.198 Safari/537.36" etag="uit4DX-4l-CO9JaexnKB" version="24.0.3" type="github">
  <diagram name="第 1 页" id="0BPGrZjvOIaT2mZOJnHN">
    <mxGraphModel dx="1562" dy="781" grid="1" gridSize="10" guides="1" tooltips="1" connect="1" arrows="1" fold="1" page="1" pageScale="1" pageWidth="827" pageHeight="1169" math="0" shadow="0">
      <root>
        <mxCell id="0" />
        <mxCell id="1" parent="0" />
        <mxCell id="G3loWDsG2SVTk1HPXEyh-1" value="" style="rounded=0;whiteSpace=wrap;html=1;" vertex="1" parent="1">
          <mxGeometry x="40" y="40" width="1080" height="670" as="geometry" />
        </mxCell>
        <mxCell id="G3loWDsG2SVTk1HPXEyh-3" value="&lt;font style=&quot;font-size: 34px;&quot;&gt;功能示意图&lt;/font&gt;" style="text;html=1;align=center;verticalAlign=middle;whiteSpace=wrap;rounded=0;" vertex="1" parent="1">
          <mxGeometry x="60" y="250" width="60" height="230" as="geometry" />
        </mxCell>
      </root>
    </mxGraphModel>
  </diagram>
</mxfile>
